<svg xmlns="http://www.w3.org/2000/svg" viewBox="0 0 320 140" role="img" aria-labelledby="title desc">
  <title id="title">Delora Energy</title>
  <desc id="desc">Delora brand mark with golden sun and blue wave lettering</desc>
  <defs>
    <linearGradient id="sun" x1="0%" x2="100%" y1="0%" y2="100%">
      <stop offset="0%" stop-color="#f2ce55" />
      <stop offset="100%" stop-color="#b68720" />
    </linearGradient>
    <linearGradient id="wave" x1="0%" x2="100%" y1="0%" y2="100%">
      <stop offset="0%" stop-color="#7fd8ff" />
      <stop offset="100%" stop-color="#0c4a74" />
    </linearGradient>
    <linearGradient id="textFill" x1="0%" x2="100%" y1="0%" y2="100%">
      <stop offset="0%" stop-color="#f4d06f" />
      <stop offset="45%" stop-color="#e2b54c" />
      <stop offset="100%" stop-color="#0f3f68" />
    </linearGradient>
  </defs>
  <g transform="translate(10 10)">
    <path d="M83.2 55.5c12.7-37.9 54.1-55.8 79.9-35.9 13.3 10.3 14 31.4 2.8 44.1-9 10.1-23.7 15.7-36.6 12.1-13.8-3.9-21-17.5-12.8-28.9 4.5-6.2 13.6-9.4 21.2-7.2-5.7-5.9-15.5-7.8-25.8-3.5-13.7 5.8-22.4 19.1-19.7 32.2z" fill="url(#sun)" opacity="0.95" />
    <path d="M133.2 103.4c-33.3 2.8-64.8-18.5-70.3-46-6.2-31.5 26.2-62.4 68.4-57.1-31.2 3-48.7 27.7-41.7 48.5 7.6 22.9 38.5 33.2 59.7 21.4 11.8-6.6 19.1-18.3 17-29.4 14.8 12.7 11.8 36.6-6.2 51-7.7 6.1-16.3 10.3-26.9 11.6z" fill="url(#wave)" opacity="0.94" />
  </g>
  <g transform="translate(160 100)">
    <text font-family="'Montserrat', 'Helvetica Neue', Arial, sans-serif" font-size="64" font-weight="600" letter-spacing="6" text-anchor="middle" fill="url(#textFill)">
      DELORA
    </text>
  </g>
</svg>
